<svg width="16" height="21" viewBox="0 0 16 21" fill="none" xmlns="http://www.w3.org/2000/svg">
<path d="M14 0H2C0.895833 0 0 0.881836 0 1.96875V19.0312C0 20.1182 0.895833 21 2 21H14C15.1042 21 16 20.1182 16 19.0312V1.96875C16 0.881836 15.1042 0 14 0ZM6 1.3125H10C10.3667 1.3125 10.6667 1.60781 10.6667 1.96875C10.6667 2.32969 10.3667 2.625 10 2.625H6C5.63333 2.625 5.33333 2.32969 5.33333 1.96875C5.33333 1.60781 5.63333 1.3125 6 1.3125ZM8 6.5625C9.47083 6.5625 10.6667 7.73965 10.6667 9.1875C10.6667 10.6354 9.47083 11.8125 8 11.8125C6.52917 11.8125 5.33333 10.6354 5.33333 9.1875C5.33333 7.73965 6.52917 6.5625 8 6.5625ZM12.6667 16.275C12.6667 16.7098 12.25 17.0625 11.7333 17.0625H4.26667C3.75 17.0625 3.33333 16.7098 3.33333 16.275V15.4875C3.33333 14.1832 4.5875 13.125 6.13333 13.125H6.34167C6.85417 13.3342 7.4125 13.4531 8 13.4531C8.5875 13.4531 9.15 13.3342 9.65833 13.125H9.86667C11.4125 13.125 12.6667 14.1832 12.6667 15.4875V16.275Z" fill="#00365A"/>
</svg>
